<svg width="16" height="16" viewBox="0 0 16 16" fill="none" xmlns="http://www.w3.org/2000/svg">
<path d="M5.72586 11.315C4.16048 11.315 2.83485 10.772 1.74897 9.68617C0.663066 8.60027 0.120117 7.27463 0.120117 5.70925C0.120117 4.14388 0.663066 2.81824 1.74897 1.73234C2.83485 0.646457 4.16048 0.103516 5.72586 0.103516C7.29123 0.103516 8.61687 0.646457 9.70277 1.73234C10.7887 2.81824 11.3316 4.14388 11.3316 5.70925C11.3316 6.36385 11.2217 6.98906 11.002 7.58489C10.7822 8.18073 10.489 8.69899 10.1223 9.1397L15.3967 14.4141C15.5236 14.541 15.5885 14.7005 15.5915 14.8927C15.5944 15.0848 15.5295 15.2473 15.3967 15.3801C15.2639 15.5129 15.1029 15.5793 14.9137 15.5793C14.7245 15.5793 14.5635 15.5129 14.4307 15.3801L9.1563 10.1057C8.69796 10.4841 8.17088 10.7803 7.57505 10.9942C6.97921 11.208 6.36282 11.315 5.72586 11.315ZM5.72586 9.94004C6.90695 9.94004 7.90735 9.53018 8.72707 8.71047C9.54678 7.89075 9.95664 6.89035 9.95664 5.70925C9.95664 4.52816 9.54678 3.52776 8.72707 2.70804C7.90735 1.88833 6.90695 1.47847 5.72586 1.47847C4.54476 1.47847 3.54436 1.88833 2.72464 2.70804C1.90494 3.52776 1.49509 4.52816 1.49509 5.70925C1.49509 6.89035 1.90494 7.89075 2.72464 8.71047C3.54436 9.53018 4.54476 9.94004 5.72586 9.94004Z" fill="#333236"/>
</svg>
