<svg width="20" height="21" viewBox="0 0 20 21" fill="none" xmlns="http://www.w3.org/2000/svg">
<path d="M9.37508 10.6936V13.402C9.37508 13.5793 9.43491 13.7278 9.55456 13.8475C9.67421 13.9672 9.82271 14.027 10.0001 14.027C10.1774 14.027 10.3259 13.9672 10.4456 13.8475C10.5652 13.7278 10.625 13.5793 10.625 13.402V10.6936H13.3334C13.5107 10.6936 13.6592 10.6338 13.7789 10.5142C13.8985 10.3945 13.9584 10.246 13.9584 10.0687C13.9584 9.89132 13.8985 9.74282 13.7789 9.62316C13.6592 9.50351 13.5107 9.44369 13.3334 9.44369H10.625V6.73533C10.625 6.55798 10.5652 6.40948 10.4456 6.28983C10.3259 6.17018 10.1774 6.11035 10.0001 6.11035C9.82271 6.11035 9.67421 6.17018 9.55456 6.28983C9.43491 6.40948 9.37508 6.55798 9.37508 6.73533V9.44369H6.66673C6.48938 9.44369 6.34088 9.50351 6.22123 9.62316C6.10157 9.74282 6.04175 9.89132 6.04175 10.0687C6.04175 10.246 6.10157 10.3945 6.22123 10.5142C6.34088 10.6338 6.48938 10.6936 6.66673 10.6936H9.37508ZM4.42316 17.152C4.00222 17.152 3.64591 17.0061 3.35425 16.7145C3.06258 16.4228 2.91675 16.0665 2.91675 15.6456V4.49177C2.91675 4.07082 3.06258 3.71452 3.35425 3.42285C3.64591 3.13118 4.00222 2.98535 4.42316 2.98535H15.577C15.9979 2.98535 16.3542 3.13118 16.6459 3.42285C16.9375 3.71452 17.0834 4.07082 17.0834 4.49177V15.6456C17.0834 16.0665 16.9375 16.4228 16.6459 16.7145C16.3542 17.0061 15.9979 17.152 15.577 17.152H4.42316ZM4.42316 15.902H15.577C15.6411 15.902 15.6998 15.8753 15.7533 15.8219C15.8067 15.7684 15.8334 15.7097 15.8334 15.6456V4.49177C15.8334 4.42766 15.8067 4.36889 15.7533 4.31546C15.6998 4.26204 15.6411 4.23533 15.577 4.23533H4.42316C4.35905 4.23533 4.30028 4.26204 4.24685 4.31546C4.19344 4.36889 4.16673 4.42766 4.16673 4.49177V15.6456C4.16673 15.7097 4.19344 15.7684 4.24685 15.8219C4.30028 15.8753 4.35905 15.902 4.42316 15.902Z" fill="#787486"/>
</svg>
