<svg width="19" height="18" viewBox="0 0 19 18" fill="none" xmlns="http://www.w3.org/2000/svg">
<path d="M11.7128 8.99998L6.06328 3.35046C5.91424 3.20142 5.84164 3.02402 5.84548 2.81826C5.84933 2.61248 5.92577 2.43508 6.07481 2.28606C6.22385 2.13702 6.40125 2.0625 6.60701 2.0625C6.81278 2.0625 6.99018 2.13702 7.13921 2.28606L12.881 8.03942C13.0166 8.17499 13.1171 8.32691 13.1825 8.49518C13.2479 8.66345 13.2806 8.83172 13.2806 8.99998C13.2806 9.16824 13.2479 9.33651 13.1825 9.50479C13.1171 9.67305 13.0166 9.82497 12.881 9.96054L7.12768 15.7139C6.97864 15.8629 6.80316 15.9355 6.60124 15.9317C6.39932 15.9279 6.22385 15.8514 6.07481 15.7024C5.92577 15.5533 5.85126 15.3759 5.85126 15.1702C5.85126 14.9644 5.92577 14.787 6.07481 14.638L11.7128 8.99998Z" fill="#333236"/>
</svg>
