<svg width="12" height="12" viewBox="0 0 12 12" fill="none" xmlns="http://www.w3.org/2000/svg">
<path d="M5.50016 6.56605V8.73273C5.50016 8.87461 5.54802 8.99341 5.64375 9.08913C5.73947 9.18485 5.85827 9.23272 6.00015 9.23272C6.14202 9.23272 6.26082 9.18485 6.35655 9.08913C6.45227 8.99341 6.50013 8.87461 6.50013 8.73273V6.56605H8.66681C8.80869 6.56605 8.92749 6.51819 9.02321 6.42247C9.11893 6.32674 9.1668 6.20794 9.1668 6.06606C9.1668 5.92419 9.11893 5.80539 9.02321 5.70966C8.92749 5.61394 8.80869 5.56608 8.66681 5.56608H6.50013V3.3994C6.50013 3.25752 6.45227 3.13872 6.35655 3.043C6.26082 2.94728 6.14202 2.89941 6.00015 2.89941C5.85827 2.89941 5.73947 2.94728 5.64375 3.043C5.54802 3.13872 5.50016 3.25752 5.50016 3.3994V5.56608H3.33348C3.1916 5.56608 3.0728 5.61394 2.97708 5.70966C2.88136 5.80539 2.8335 5.92419 2.8335 6.06606C2.8335 6.20794 2.88136 6.32674 2.97708 6.42247C3.0728 6.51819 3.1916 6.56605 3.33348 6.56605H5.50016ZM1.53863 11.7327C1.20187 11.7327 0.916829 11.616 0.683496 11.3827C0.450163 11.1494 0.333496 10.8643 0.333496 10.5276V1.60455C0.333496 1.26779 0.450163 0.982747 0.683496 0.749414C0.916829 0.516081 1.20187 0.399414 1.53863 0.399414H10.4617C10.7984 0.399414 11.0835 0.516081 11.3168 0.749414C11.5501 0.982747 11.6668 1.26779 11.6668 1.60455V10.5276C11.6668 10.8643 11.5501 11.1494 11.3168 11.3827C11.0835 11.616 10.7984 11.7327 10.4617 11.7327H1.53863ZM1.53863 10.7327H10.4617C10.513 10.7327 10.56 10.7114 10.6027 10.6686C10.6454 10.6259 10.6668 10.5789 10.6668 10.5276V1.60455C10.6668 1.55326 10.6454 1.50624 10.6027 1.4635C10.56 1.42076 10.513 1.3994 10.4617 1.3994H1.53863C1.48734 1.3994 1.44032 1.42076 1.39758 1.4635C1.35485 1.50624 1.33348 1.55326 1.33348 1.60455V10.5276C1.33348 10.5789 1.35485 10.6259 1.39758 10.6686C1.44032 10.7114 1.48734 10.7327 1.53863 10.7327Z" fill="white"/>
</svg>
