<svg width="81" height="23" viewBox="0 0 81 23" fill="none" xmlns="http://www.w3.org/2000/svg">
<path d="M5.83645 18.0408V5.40577H0.806015V2.46947H14.505V5.40577H9.47453V18.0408H5.83645Z" fill="#5534DA"/>
<path d="M22.5019 18.0408V15.7051L22.2773 15.1934V11.0114C22.2773 10.2699 22.0452 9.69158 21.5811 9.27634C21.132 8.86111 20.4358 8.65349 19.4926 8.65349C18.8488 8.65349 18.2125 8.7573 17.5837 8.96492C16.9699 9.1577 16.4459 9.42464 16.0117 9.76573L14.7541 7.34105C15.4128 6.88133 16.2063 6.52542 17.1346 6.27331C18.0628 6.0212 19.006 5.89515 19.9642 5.89515C21.8057 5.89515 23.2355 6.32521 24.2535 7.18534C25.2716 8.04547 25.7806 9.38757 25.7806 11.2116V18.0408H22.5019ZM18.8189 18.2187C17.8757 18.2187 17.0672 18.063 16.3935 17.7516C15.7198 17.4253 15.2032 16.9878 14.8439 16.4391C14.4846 15.8904 14.3049 15.275 14.3049 14.5928C14.3049 13.881 14.4771 13.2581 14.8215 12.7243C15.1808 12.1904 15.7422 11.7752 16.5058 11.4786C17.2693 11.1671 18.2649 11.0114 19.4926 11.0114H22.704V13.0357H19.8744C19.0509 13.0357 18.482 13.1692 18.1676 13.4361C17.8682 13.703 17.7185 14.0367 17.7185 14.4371C17.7185 14.882 17.8906 15.2379 18.235 15.5049C18.5943 15.757 19.0809 15.883 19.6947 15.883C20.2786 15.883 20.8026 15.7495 21.2667 15.4826C21.7308 15.2008 22.0677 14.793 22.2773 14.2592L22.8163 15.8608C22.5617 16.6319 22.0976 17.2177 21.4239 17.6181C20.7502 18.0185 19.8818 18.2187 18.8189 18.2187Z" fill="#5534DA"/>
<path d="M32.5057 18.2187C31.4727 18.2187 30.477 18.1001 29.5189 17.8628C28.5757 17.6107 27.8271 17.2993 27.2731 16.9285L28.4409 14.4371C28.9949 14.7782 29.6461 15.06 30.3947 15.2824C31.1583 15.49 31.9068 15.5938 32.6404 15.5938C33.4489 15.5938 34.0178 15.4974 34.3472 15.3047C34.6915 15.1119 34.8637 14.8449 34.8637 14.5038C34.8637 14.2221 34.729 14.0145 34.4595 13.881C34.205 13.7327 33.8606 13.6215 33.4264 13.5473C32.9923 13.4732 32.5132 13.399 31.9892 13.3249C31.4801 13.2507 30.9636 13.1543 30.4396 13.0357C29.9156 12.9022 29.4365 12.7094 29.0023 12.4573C28.5682 12.2052 28.2163 11.8641 27.9469 11.4341C27.6923 11.004 27.5651 10.4479 27.5651 9.76573C27.5651 9.00941 27.7822 8.34207 28.2163 7.7637C28.6655 7.18534 29.3093 6.73303 30.1477 6.40678C30.9861 6.06569 31.9892 5.89515 33.1569 5.89515C33.9804 5.89515 34.8188 5.98413 35.6722 6.16209C36.5255 6.34004 37.2367 6.59957 37.8056 6.94065L36.6378 9.40981C36.0539 9.06873 35.4626 8.83886 34.8637 8.72023C34.2798 8.58676 33.7109 8.52002 33.1569 8.52002C32.3784 8.52002 31.8095 8.62383 31.4502 8.83145C31.0909 9.03907 30.9112 9.306 30.9112 9.63226C30.9112 9.92885 31.0385 10.1513 31.293 10.2996C31.5625 10.4479 31.9143 10.5665 32.3485 10.6555C32.7827 10.7445 33.2543 10.8261 33.7633 10.9002C34.2873 10.9595 34.8113 11.0559 35.3353 11.1894C35.8593 11.3229 36.3309 11.5156 36.7501 11.7677C37.1843 12.005 37.5361 12.3387 37.8056 12.7688C38.0751 13.184 38.2098 13.7327 38.2098 14.4149C38.2098 15.1564 37.9853 15.8163 37.5361 16.3946C37.087 16.9582 36.4357 17.4031 35.5823 17.7293C34.7439 18.0556 33.7184 18.2187 32.5057 18.2187Z" fill="#5534DA"/>
<path d="M42.758 15.5938L42.8478 11.3673L48.4846 6.07311H52.6616L47.2494 11.5231L45.4304 12.9912L42.758 15.5938ZM39.861 18.0408V1.53519H43.3643V18.0408H39.861ZM48.8663 18.0408L44.7791 13.0135L46.9799 10.3218L53.1108 18.0408H48.8663Z" fill="#5534DA"/>
<path d="M54.1759 18.0408V6.07311H57.6792V18.0408H54.1759ZM55.9276 4.40476C55.2838 4.40476 54.7598 4.21938 54.3556 3.84864C53.9513 3.47789 53.7492 3.01817 53.7492 2.46947C53.7492 1.92077 53.9513 1.46104 54.3556 1.0903C54.7598 0.719552 55.2838 0.53418 55.9276 0.53418C56.5713 0.53418 57.0953 0.712138 57.4996 1.06805C57.9038 1.40914 58.1059 1.85403 58.1059 2.40273C58.1059 2.9811 57.9038 3.46306 57.4996 3.84864C57.1103 4.21938 56.5863 4.40476 55.9276 4.40476Z" fill="#5534DA"/>
<path d="M60.8469 18.0408V5.80617C60.8469 4.45666 61.2512 3.3815 62.0596 2.58069C62.8681 1.76505 64.0209 1.35723 65.518 1.35723C66.0271 1.35723 66.5137 1.40914 66.9778 1.51295C67.4569 1.61675 67.8611 1.77988 68.1905 2.00233L67.2697 4.51598C67.0751 4.38251 66.858 4.2787 66.6185 4.20455C66.3789 4.1304 66.1244 4.09333 65.8549 4.09333C65.3459 4.09333 64.9491 4.24163 64.6647 4.53822C64.3952 4.81999 64.2604 5.25005 64.2604 5.82842V6.94065L64.3503 8.43104V18.0408H60.8469ZM58.983 9.00941V6.34004H67.3596V9.00941H58.983Z" fill="#5534DA"/>
<path d="M70.3409 22.5342C69.7121 22.5342 69.0908 22.4378 68.477 22.245C67.8631 22.0522 67.3616 21.7853 66.9723 21.4442L68.2524 18.975C68.5219 19.2123 68.8288 19.3977 69.1731 19.5311C69.5324 19.6646 69.8843 19.7313 70.2286 19.7313C70.7227 19.7313 71.1119 19.6127 71.3964 19.3754C71.6958 19.153 71.9653 18.7748 72.2049 18.241L72.8337 16.7728L73.1032 16.3946L77.4374 6.07311H80.806L75.3489 18.7748C74.9596 19.7388 74.5105 20.4951 74.0014 21.0438C73.5074 21.5925 72.9534 21.9781 72.3396 22.2005C71.7408 22.423 71.0745 22.5342 70.3409 22.5342ZM72.407 18.5079L67.0172 6.07311H70.6329L74.8099 16.0832L72.407 18.5079Z" fill="#5534DA"/>
</svg>
